<?xml version="1.0" standalone="no"?>
<!DOCTYPE svg PUBLIC "-//W3C//DTD SVG 20010904//EN"
 "http://www.w3.org/TR/2001/REC-SVG-20010904/DTD/svg10.dtd">
<svg version="1.0" xmlns="http://www.w3.org/2000/svg"
 width="433.000000pt" height="422.000000pt" viewBox="0 0 433.000000 422.000000"
 preserveAspectRatio="xMidYMid meet">

<g transform="translate(0.000000,422.000000) scale(0.100000,-0.100000)"
fill="#000000" stroke="none">
<path d="M967 3373 c-31 -52 9 -471 85 -885 l21 -117 -37 -42 c-48 -52 -76
-113 -76 -164 0 -22 14 -78 30 -125 16 -47 30 -88 30 -92 0 -5 -99 -8 -221 -8
-200 0 -221 -2 -215 -16 3 -9 45 -72 92 -140 l85 -124 -91 -130 c-49 -72 -90
-135 -90 -141 0 -5 84 -9 206 -9 l206 0 116 -121 c168 -176 361 -332 489 -398
42 -21 50 -21 564 -21 l521 0 58 31 c107 57 275 193 433 351 l159 158 204 0
c120 0 204 4 204 9 0 5 -41 68 -91 140 l-90 131 85 124 c48 69 89 132 92 140
5 14 -13 16 -149 16 l-156 0 -3 28 c-4 38 -36 39 -96 3 -49 -31 -51 -31 -183
-31 -118 0 -137 3 -159 20 -19 15 -41 20 -87 20 -59 0 -63 2 -63 23 0 55 -67
117 -127 117 -42 0 -89 -34 -104 -74 -12 -34 -14 -35 -53 -30 -53 7 -93 -9
-114 -46 -15 -26 -23 -30 -61 -30 -43 0 -43 1 -38 29 4 17 1 33 -6 39 -24 20
-137 52 -182 52 -49 0 -61 -8 -118 -84 l-28 -37 -92 3 c-86 3 -92 4 -88 23 2
11 4 46 5 77 2 98 -58 148 -133 111 l-38 -19 -27 23 c-37 32 -85 31 -117 -3
-20 -21 -24 -36 -23 -82 0 -68 21 -117 49 -117 18 0 20 7 20 80 0 93 16 106
50 43 24 -46 48 -48 82 -8 31 38 60 39 74 3 12 -33 5 -65 -22 -102 l-20 -27
-176 -2 -176 -2 6 47 c26 211 20 251 -52 323 -26 26 -63 56 -82 65 -19 10 -35
18 -36 19 -1 1 -15 83 -32 182 -67 401 -141 726 -177 782 -15 22 -29 28 -37
15z m343 -1351 c11 -35 20 -68 20 -73 0 -5 -21 -9 -46 -9 l-47 0 6 81 c4 44
10 85 13 91 11 17 32 -19 54 -90z m-172 46 c20 -41 42 -100 42 -114 0 -10 -13
-14 -45 -14 l-45 0 0 53 c0 64 9 97 24 97 7 0 18 -10 24 -22z m1617 -33 c25
-24 31 -49 19 -79 -5 -12 -21 -16 -70 -16 l-63 0 14 47 c23 75 58 91 100 48z
m-532 -51 c77 -26 62 -44 -38 -44 -47 0 -85 2 -85 5 0 3 7 17 16 30 19 29 43
31 107 9z m357 -40 c0 -2 -19 -4 -42 -3 -31 0 -37 3 -24 8 18 7 66 3 66 -5z
m-1639 -193 c16 -63 31 -116 34 -119 3 -3 5 50 5 117 0 121 0 122 23 119 22
-3 22 -3 22 -208 0 -174 -2 -205 -15 -207 -31 -6 -43 18 -75 147 -18 72 -36
134 -39 137 -3 3 -3 -60 1 -141 l6 -146 -25 0 c-35 0 -38 15 -38 227 0 192 0
194 49 190 22 -2 26 -12 52 -116z m281 99 c24 -18 25 -26 32 -165 5 -97 4
-157 -4 -179 -18 -57 -98 -75 -144 -33 -25 21 -26 27 -29 161 -4 152 2 204 29
223 27 19 88 16 116 -7z m253 10 c3 -5 17 -65 31 -132 14 -68 27 -125 29 -127
2 -1 6 12 9 30 3 19 14 79 24 134 l17 100 35 0 35 0 0 -205 c0 -198 -1 -205
-20 -205 -19 0 -20 8 -25 125 l-5 125 -12 -55 c-7 -30 -18 -85 -24 -123 -18
-108 -48 -102 -68 15 -7 40 -18 96 -25 123 -11 48 -11 45 -16 -80 -5 -122 -6
-130 -25 -130 -19 0 -20 9 -26 200 -4 110 -5 203 -2 208 6 10 61 9 68 -3z
m385 -10 c13 -13 20 -34 20 -57 0 -21 3 -86 7 -144 6 -124 -5 -175 -44 -190
-43 -16 -82 -11 -108 16 -25 24 -25 27 -25 190 0 152 2 167 20 185 14 14 33
20 65 20 32 0 51 -6 65 -20z m223 -8 c18 -19 22 -34 22 -91 0 -58 -4 -73 -22
-93 -28 -30 -28 -31 1 -104 42 -106 42 -106 6 -102 -31 3 -34 7 -60 81 -15 43
-30 81 -34 84 -3 3 -6 -33 -6 -81 l0 -87 -27 3 -28 3 -3 195 c-1 107 0 201 3
208 9 24 120 11 148 -16z m207 3 c0 -22 -4 -25 -40 -25 l-40 0 0 -65 0 -65 36
0 c31 0 35 -3 32 -22 -2 -18 -11 -24 -35 -26 l-33 -3 0 -64 0 -64 43 -3 c37
-3 42 -6 42 -28 0 -24 -3 -25 -72 -28 l-73 -3 0 211 0 210 70 0 c68 0 70 -1
70 -25z m200 -145 c7 -77 15 -139 17 -137 2 2 10 68 17 145 15 149 19 162 41
162 24 0 31 -29 45 -170 15 -151 20 -145 39 45 6 60 15 113 20 118 5 5 17 7
27 5 16 -3 18 -11 16 -48 -7 -101 -42 -354 -51 -363 -5 -5 -21 -7 -37 -5 -32
3 -37 18 -50 133 l-8 70 -10 -90 c-6 -49 -15 -96 -19 -102 -13 -20 -65 -16
-71 5 -6 18 -46 345 -46 374 0 21 31 29 46 12 6 -7 16 -76 24 -154z m366 159
c3 -6 19 -99 34 -206 21 -158 24 -196 13 -200 -25 -10 -42 6 -48 44 -10 61
-13 65 -42 61 -24 -3 -29 -9 -35 -46 -9 -53 -14 -62 -40 -62 -18 0 -19 5 -16
48 6 56 47 342 53 360 5 15 71 16 81 1z m232 -9 c13 -12 22 -33 22 -50 0 -25
-4 -30 -24 -30 -17 0 -26 7 -30 25 -7 29 -40 34 -55 8 -12 -23 -1 -51 56 -136
92 -139 60 -244 -65 -211 -26 7 -52 51 -52 89 0 21 5 25 30 25 25 0 30 -4 30
-23 0 -46 45 -64 56 -22 4 17 -3 40 -28 80 -90 151 -89 148 -84 190 3 25 13
46 26 57 30 25 91 23 118 -2z m225 8 c8 -22 -13 -48 -38 -48 l-24 0 2 -175 c2
-181 1 -185 -39 -185 -11 0 -14 23 -14 119 0 65 -3 145 -6 179 -6 56 -9 61
-33 64 -29 3 -42 35 -19 49 22 14 166 11 171 -3z m175 -15 c3 -19 -2 -22 -40
-25 l-43 -3 0 -60 0 -60 33 -3 c26 -3 32 -7 32 -28 0 -21 -5 -24 -34 -24 l-34
0 3 -52 c2 -29 4 -59 4 -65 1 -7 14 -13 30 -13 42 0 61 -9 61 -30 0 -23 -19
-30 -89 -30 l-58 0 -6 201 c-4 111 -4 205 -1 211 3 5 36 8 72 6 60 -3 67 -5
70 -25z"/>
<path d="M1136 1804 c-7 -19 -6 -159 3 -239 5 -48 10 -61 25 -63 37 -7 43 38
30 226 -7 87 -8 92 -29 92 -13 0 -26 -7 -29 -16z"/>
<path d="M1765 1784 c-8 -44 4 -266 15 -277 4 -5 16 -7 26 -5 23 4 29 66 19
216 -7 98 -8 102 -30 102 -18 0 -24 -7 -30 -36z"/>
<path d="M1990 1744 l0 -65 28 3 c25 3 27 7 30 51 3 52 -9 77 -39 77 -17 0
-19 -8 -19 -66z"/>
<path d="M2807 1734 c-4 -22 -7 -58 -7 -81 0 -37 3 -43 20 -43 19 0 20 4 14
68 -8 85 -19 107 -27 56z"/>
<path d="M2118 2614 c-15 -8 -31 -26 -34 -41 -10 -36 -10 -140 -2 -149 13 -13
152 -16 195 -5 93 25 98 159 8 197 -44 18 -132 17 -167 -2z"/>
<path d="M2772 2493 c-5 -10 -12 -30 -16 -44 -3 -15 -27 -50 -52 -78 -47 -52
-51 -75 -17 -88 41 -16 162 165 136 206 -15 23 -40 25 -51 4z"/>
<path d="M2385 2376 c-38 -17 -60 -41 -80 -89 -13 -32 -14 -42 -3 -65 15 -30
83 -61 138 -61 44 -1 115 31 129 57 26 48 4 124 -43 156 -30 19 -99 20 -141 2z
m119 -68 c37 -53 5 -83 -80 -76 -30 3 -57 8 -61 12 -4 4 -1 19 8 34 29 52 106
69 133 30z"/>
<path d="M1985 2342 c-16 -11 -47 -38 -67 -60 -54 -60 -52 -88 13 -146 57 -51
87 -57 145 -30 60 28 84 61 84 113 0 106 -95 172 -175 123z m105 -83 c18 -32
8 -62 -29 -86 -19 -13 -38 -23 -42 -23 -5 0 -24 14 -44 31 l-36 32 33 34 c54
57 93 61 118 12z"/>
<path d="M3095 2334 c-16 -8 -37 -22 -47 -31 -28 -25 -68 -121 -68 -162 0 -32
6 -45 40 -75 22 -20 49 -36 60 -36 26 0 81 28 138 69 42 31 42 32 42 94 0 75
-24 121 -75 143 -43 18 -53 18 -90 -2z"/>
</g>
</svg>
